<svg width="100" height="100" viewBox="0 0 100 100" fill="none" xmlns="http://www.w3.org/2000/svg">
<g clip-path="url(#clip0_4_4)">
<circle cx="50" cy="50" r="50" fill="white"/>
<mask id="mask0_4_4" style="mask-type:alpha" maskUnits="userSpaceOnUse" x="21" y="14" width="58" height="73">
<path d="M32.3007 22.0203C32.3007 22.0203 37.411 38.6958 40.8306 54.3012M40.8306 54.3012C43.7479 67.6143 45.4348 80.1486 41.6685 80.886C33.4875 82.4878 24.1547 66.8706 27.8204 55.2574L40.8306 54.3012ZM40.8306 54.3012L58.0594 53.0348M58.0594 53.0348C56.0632 37.2066 55.5098 20.4387 62.0334 20.0181C74.4547 19.2172 74.2523 45.2464 71.4012 52.0542L58.0594 53.0348ZM58.0594 53.0348C59.8641 67.3445 62.848 80.886 62.848 80.886" stroke="black" stroke-width="11" stroke-linecap="round" stroke-linejoin="round"/>
</mask>
<g mask="url(#mask0_4_4)">
<circle cx="50" cy="50" r="50" fill="url(#paint0_linear_4_4)"/>
</g>
</g>
<defs>
<linearGradient id="paint0_linear_4_4" x1="16.5" y1="13" x2="84" y2="86.5" gradientUnits="userSpaceOnUse">
<stop stop-color="#0052D4"/>
<stop offset="0.46875" stop-color="#4364F7"/>
<stop offset="1" stop-color="#6FB1FC"/>
</linearGradient>
<clipPath id="clip0_4_4">
<rect width="100" height="100" fill="white"/>
</clipPath>
</defs>
</svg>
